<?xml version="1.0" encoding="UTF-8" standalone="no"?>
<!-- Created with Inkscape (http://www.inkscape.org/) -->

<svg
   version="1.1"
   id="svg2"
   width="170.66667"
   height="170.66667"
   viewBox="0 0 170.66667 170.66667"
   xmlns="http://www.w3.org/2000/svg"
   xmlns:svg="http://www.w3.org/2000/svg">
  <defs
     id="defs6">
    <clipPath
       clipPathUnits="userSpaceOnUse"
       id="clipPath18">
      <path
         d="m 37.078,100 c -3.471,0 -6.285,-3.582 -6.285,-8 v 0 -68 c 0,-4.419 2.814,-8 6.285,-8 v 0 h 75.429 c 3.472,0 6.286,3.581 6.286,8 v 0 68 c 0,4.418 -2.814,8 -6.286,8 v 0 z"
         id="path16" />
    </clipPath>
    <linearGradient
       x1="0"
       y1="0"
       x2="1"
       y2="0"
       gradientUnits="userSpaceOnUse"
       gradientTransform="matrix(88,0,0,-88,30.792829,58)"
       spreadMethod="pad"
       id="linearGradient34">
      <stop
         style="stop-opacity:0.09999237;stop-color:#ffffff"
         offset="0"
         id="stop28" />
      <stop
         style="stop-opacity:1;stop-color:#ffffff"
         offset="0.896648"
         id="stop30" />
      <stop
         style="stop-opacity:1;stop-color:#ffffff"
         offset="1"
         id="stop32" />
    </linearGradient>
    <mask
       maskUnits="userSpaceOnUse"
       x="0"
       y="0"
       width="1"
       height="1"
       id="mask36">
      <g
         id="g46">
        <g
           id="g44">
          <g
             id="g42">
            <g
               id="g40">
              <path
                 d="M -32768,32767 H 32767 V -32768 H -32768 Z"
                 style="fill:url(#linearGradient34);stroke:none"
                 id="path38" />
            </g>
          </g>
        </g>
      </g>
    </mask>
    <linearGradient
       x1="0"
       y1="0"
       x2="1"
       y2="0"
       gradientUnits="userSpaceOnUse"
       gradientTransform="matrix(88,0,0,-88,30.792829,58)"
       spreadMethod="pad"
       id="linearGradient58">
      <stop
         style="stop-opacity:1;stop-color:#ffffff"
         offset="0"
         id="stop52" />
      <stop
         style="stop-opacity:1;stop-color:#ffffff"
         offset="0.896648"
         id="stop54" />
      <stop
         style="stop-opacity:1;stop-color:#ffffff"
         offset="1"
         id="stop56" />
    </linearGradient>
    <clipPath
       clipPathUnits="userSpaceOnUse"
       id="clipPath68">
      <path
         d="M 0,128 H 128 V 0 H 0 Z"
         id="path66" />
    </clipPath>
    <clipPath
       clipPathUnits="userSpaceOnUse"
       id="clipPath78">
      <path
         d="M 4.0009,123.999 H 123.999 V 4.00089 H 4.0009 Z"
         id="path76" />
    </clipPath>
    <clipPath
       clipPathUnits="userSpaceOnUse"
       id="clipPath94">
      <path
         d="m 20,120 h 88 V 8 H 20 Z"
         id="path92" />
    </clipPath>
    <clipPath
       clipPathUnits="userSpaceOnUse"
       id="clipPath110">
      <path
         d="M 12.0003,116 H 116 V 12.0002 H 12.0003 Z"
         id="path108" />
    </clipPath>
    <clipPath
       clipPathUnits="userSpaceOnUse"
       id="clipPath126">
      <path
         d="M 8,100 H 120 V 12 H 8 Z"
         id="path124" />
    </clipPath>
    <clipPath
       clipPathUnits="userSpaceOnUse"
       id="clipPath148">
      <path
         d="M 0,128 H 128 V 0 H 0 Z"
         id="path146" />
    </clipPath>
    <linearGradient
       x1="0"
       y1="0"
       x2="1"
       y2="0"
       gradientUnits="userSpaceOnUse"
       gradientTransform="matrix(88,0,0,-88,31.619955,50.025246)"
       spreadMethod="pad"
       id="linearGradient178">
      <stop
         style="stop-opacity:1;stop-color:#9a9996"
         offset="0"
         id="stop166" />
      <stop
         style="stop-opacity:1;stop-color:#ffffff"
         offset="0.0386598"
         id="stop168" />
      <stop
         style="stop-opacity:1;stop-color:#9a9996"
         offset="0.126289"
         id="stop170" />
      <stop
         style="stop-opacity:1;stop-color:#9a9996"
         offset="0.889175"
         id="stop172" />
      <stop
         style="stop-opacity:1;stop-color:#ffffff"
         offset="0.966495"
         id="stop174" />
      <stop
         style="stop-opacity:1;stop-color:#9a9996"
         offset="1"
         id="stop176" />
    </linearGradient>
    <clipPath
       clipPathUnits="userSpaceOnUse"
       id="clipPath188">
      <path
         d="M 0,128 H 128 V 0 H 0 Z"
         id="path186" />
    </clipPath>
    <linearGradient
       x1="0"
       y1="0"
       x2="1"
       y2="0"
       gradientUnits="userSpaceOnUse"
       gradientTransform="matrix(0.1100464,0,0,-0.1100464,10.390546,58.65525)"
       spreadMethod="pad"
       id="linearGradient214">
      <stop
         style="stop-opacity:1;stop-color:#3584e4"
         offset="0"
         id="stop206" />
      <stop
         style="stop-opacity:1;stop-color:#ffffff"
         offset="0.028866"
         id="stop208" />
      <stop
         style="stop-opacity:1;stop-color:#3584e4"
         offset="0.0597938"
         id="stop210" />
      <stop
         style="stop-opacity:1;stop-color:#3584e4"
         offset="1"
         id="stop212" />
    </linearGradient>
    <linearGradient
       x1="0"
       y1="0"
       x2="1"
       y2="0"
       gradientUnits="userSpaceOnUse"
       gradientTransform="matrix(81.980041,0,0,-81.980041,10.39256,56.913124)"
       spreadMethod="pad"
       id="linearGradient238">
      <stop
         style="stop-opacity:1;stop-color:#3584e4"
         offset="0"
         id="stop230" />
      <stop
         style="stop-opacity:1;stop-color:#ffffff"
         offset="0.028866"
         id="stop232" />
      <stop
         style="stop-opacity:1;stop-color:#3584e4"
         offset="0.0597938"
         id="stop234" />
      <stop
         style="stop-opacity:1;stop-color:#3584e4"
         offset="1"
         id="stop236" />
    </linearGradient>
    <clipPath
       clipPathUnits="userSpaceOnUse"
       id="clipPath248">
      <path
         d="M 0,128 H 128 V 0 H 0 Z"
         id="path246" />
    </clipPath>
    <linearGradient
       x1="0"
       y1="0"
       x2="1"
       y2="0"
       gradientUnits="userSpaceOnUse"
       gradientTransform="matrix(0.1100464,0,0,-0.1100464,37.397911,58.65525)"
       spreadMethod="pad"
       id="linearGradient278">
      <stop
         style="stop-opacity:1;stop-color:#65a871"
         offset="0"
         id="stop270" />
      <stop
         style="stop-opacity:1;stop-color:#ffffff"
         offset="0.028866"
         id="stop272" />
      <stop
         style="stop-opacity:1;stop-color:#65a871"
         offset="0.0597938"
         id="stop274" />
      <stop
         style="stop-opacity:1;stop-color:#65a871"
         offset="1"
         id="stop276" />
    </linearGradient>
    <linearGradient
       x1="0"
       y1="0"
       x2="1"
       y2="0"
       gradientUnits="userSpaceOnUse"
       gradientTransform="matrix(81.980041,0,0,-81.980041,37.399925,56.913124)"
       spreadMethod="pad"
       id="linearGradient302">
      <stop
         style="stop-opacity:1;stop-color:#65a871"
         offset="0"
         id="stop294" />
      <stop
         style="stop-opacity:1;stop-color:#ffffff"
         offset="0.028866"
         id="stop296" />
      <stop
         style="stop-opacity:1;stop-color:#65a871"
         offset="0.0597938"
         id="stop298" />
      <stop
         style="stop-opacity:1;stop-color:#65a871"
         offset="1"
         id="stop300" />
    </linearGradient>
    <clipPath
       clipPathUnits="userSpaceOnUse"
       id="clipPath312">
      <path
         d="M 0,128 H 128 V 0 H 0 Z"
         id="path310" />
    </clipPath>
    <clipPath
       clipPathUnits="userSpaceOnUse"
       id="clipPath328">
      <path
         d="m 38.205,99.904 c -3.639,0 -6.587,-2.949 -6.587,-6.587 v 0 -70.825 c 0,-3.639 2.948,-6.588 6.587,-6.588 v 0 h 74.825 c 3.638,0 6.587,2.949 6.587,6.588 v 0 70.825 c 0,3.638 -2.949,6.587 -6.587,6.587 v 0 z"
         id="path326" />
    </clipPath>
    <linearGradient
       x1="0"
       y1="0"
       x2="1"
       y2="0"
       gradientUnits="userSpaceOnUse"
       gradientTransform="matrix(88,0,0,-88,31.617497,57.904278)"
       spreadMethod="pad"
       id="linearGradient344">
      <stop
         style="stop-opacity:0.2;stop-color:#ffffff"
         offset="0"
         id="stop338" />
      <stop
         style="stop-opacity:1;stop-color:#ffffff"
         offset="0.9"
         id="stop340" />
      <stop
         style="stop-opacity:1;stop-color:#ffffff"
         offset="1"
         id="stop342" />
    </linearGradient>
    <mask
       maskUnits="userSpaceOnUse"
       x="0"
       y="0"
       width="1"
       height="1"
       id="mask346">
      <g
         id="g356">
        <g
           id="g354">
          <g
             id="g352">
            <g
               id="g350">
              <path
                 d="M -32768,32767 H 32767 V -32768 H -32768 Z"
                 style="fill:url(#linearGradient344);stroke:none"
                 id="path348" />
            </g>
          </g>
        </g>
      </g>
    </mask>
    <linearGradient
       x1="0"
       y1="0"
       x2="1"
       y2="0"
       gradientUnits="userSpaceOnUse"
       gradientTransform="matrix(88,0,0,-88,31.617497,57.904278)"
       spreadMethod="pad"
       id="linearGradient368">
      <stop
         style="stop-opacity:1;stop-color:#ffffff"
         offset="0"
         id="stop362" />
      <stop
         style="stop-opacity:1;stop-color:#ffffff"
         offset="0.9"
         id="stop364" />
      <stop
         style="stop-opacity:1;stop-color:#ffffff"
         offset="1"
         id="stop366" />
    </linearGradient>
    <clipPath
       clipPathUnits="userSpaceOnUse"
       id="clipPath378">
      <path
         d="M 0,128 H 128 V 0 H 0 Z"
         id="path376" />
    </clipPath>
  </defs>
  <g
     id="g10"
     transform="matrix(1.3333333,0,0,-1.3333333,0,170.66667)"
     style="display:inline">
    <g
       id="g12"
       style="display:none">
      <g
         id="g14"
         clip-path="url(#clipPath18)">
        <g
           id="g20">
          <g
             id="g22" />
          <g
             id="g48"
             mask="url(#mask36)">
            <g
               id="g50">
              <path
                 d="m 37.078,100 c -3.471,0 -6.285,-3.582 -6.285,-8 v 0 -68 c 0,-4.419 2.814,-8 6.285,-8 v 0 h 75.429 c 3.472,0 6.286,3.581 6.286,8 v 0 68 c 0,4.418 -2.814,8 -6.286,8 v 0 z"
                 style="fill:url(#linearGradient58);stroke:none"
                 id="path60" />
            </g>
          </g>
        </g>
      </g>
    </g>
    <g
       id="g62"
       style="display:none">
      <g
         id="g64"
         clip-path="url(#clipPath68)">
        <path
           d="M 0,128 H 128 V 0 H 0 Z"
           style="fill:#f0f0f0;fill-opacity:1;fill-rule:nonzero;stroke:none"
           id="path70" />
        <g
           id="g72">
          <g
             id="g74" />
          <g
             id="g86">
            <g
               clip-path="url(#clipPath78)"
               opacity="0.100006"
               id="g84">
              <g
                 transform="translate(64,123.5041)"
                 id="g82">
                <path
                   d="m 0,0 c 32.863,0 59.504,-26.641 59.504,-59.504 0,-32.863 -26.641,-59.504 -59.504,-59.504 -32.863,0 -59.504,26.641 -59.504,59.504 C -59.504,-26.641 -32.863,0 0,0 Z"
                   style="fill:none;stroke:#000000;stroke-width:0.99;stroke-linecap:butt;stroke-linejoin:miter;stroke-miterlimit:4;stroke-dasharray:0.99, 0.99;stroke-dashoffset:0;stroke-opacity:1"
                   id="path80" />
              </g>
            </g>
          </g>
        </g>
        <g
           id="g88">
          <g
             id="g90" />
          <g
             id="g102">
            <g
               clip-path="url(#clipPath94)"
               opacity="0.100006"
               id="g100">
              <g
                 transform="translate(29.196,119.505)"
                 id="g98">
                <path
                   d="m 0,0 h 69.608 c 4.805,0 8.701,-3.55 8.701,-7.929 v -95.152 c 0,-4.379 -3.896,-7.929 -8.701,-7.929 H 0 c -4.805,0 -8.701,3.55 -8.701,7.929 V -7.929 C -8.701,-3.55 -4.805,0 0,0 Z"
                   style="fill:none;stroke:#000000;stroke-width:0.99;stroke-linecap:butt;stroke-linejoin:miter;stroke-miterlimit:4;stroke-dasharray:0.99, 0.99;stroke-dashoffset:0;stroke-opacity:1"
                   id="path96" />
              </g>
            </g>
          </g>
        </g>
        <g
           id="g104">
          <g
             id="g106" />
          <g
             id="g118">
            <g
               clip-path="url(#clipPath110)"
               opacity="0.100006"
               id="g116">
              <g
                 transform="translate(20.4191,115.5048)"
                 id="g114">
                <path
                   d="m 0,0 h 87.162 c 4.376,0 7.924,-3.548 7.924,-7.924 v -87.162 c 0,-4.376 -3.548,-7.924 -7.924,-7.924 H 0 c -4.376,0 -7.924,3.548 -7.924,7.924 V -7.924 C -7.924,-3.548 -4.376,0 0,0 Z"
                   style="fill:none;stroke:#000000;stroke-width:0.99;stroke-linecap:butt;stroke-linejoin:miter;stroke-miterlimit:4;stroke-dasharray:0.99, 0.99;stroke-dashoffset:0;stroke-opacity:1"
                   id="path112" />
              </g>
            </g>
          </g>
        </g>
        <g
           id="g120">
          <g
             id="g122" />
          <g
             id="g134">
            <g
               clip-path="url(#clipPath126)"
               opacity="0.100006"
               id="g132">
              <g
                 transform="translate(16.4243,99.505)"
                 id="g130">
                <path
                   d="m 0,0 h 95.151 c 4.38,0 7.93,-3.896 7.93,-8.701 v -69.608 c 0,-4.805 -3.55,-8.701 -7.93,-8.701 L 0,-87.01 c -4.379,0 -7.929,3.896 -7.929,8.701 V -8.701 C -7.929,-3.896 -4.379,0 0,0 Z"
                   style="fill:none;stroke:#000000;stroke-width:0.99;stroke-linecap:butt;stroke-linejoin:miter;stroke-miterlimit:4;stroke-dasharray:0.99, 0.99;stroke-dashoffset:0;stroke-opacity:1"
                   id="path128" />
              </g>
            </g>
          </g>
        </g>
        <g
           id="g136"
           transform="translate(0,11)">
          <path
             d="M 0,0 H 128"
             style="fill:none;stroke:#62a0ea;stroke-width:2;stroke-linecap:butt;stroke-linejoin:miter;stroke-miterlimit:4;stroke-dasharray:none;stroke-opacity:1"
             id="path138" />
        </g>
      </g>
    </g>
    <path
       d="M 0,0 H 128 V 128 H 0 Z"
       style="display:none;fill:#232323;fill-opacity:1;fill-rule:nonzero;stroke:none"
       id="path140" />
    <g
       id="g142"
       style="display:none">
      <g
         id="g144"
         clip-path="url(#clipPath148)">
        <g
           id="g150"
           transform="translate(119.62,93.3202)">
          <path
             d="m 0,0 v -13.19 c 0,4.43 -2.82,8.02 -6.29,8.02 h -75.45 c -0.2,0 -0.4,-0.01 -0.6,-0.04 -0.14,-0.01 -0.28,-0.03 -0.41,-0.07 C -85.73,-5.86 -88,-8.99 -88,-12.77 V 0 c 0,3.63 2.95,6.58 6.58,6.58 H -6.59 C -2.95,6.58 0,3.63 0,0"
             style="fill:#c0bfbc;fill-opacity:1;fill-rule:nonzero;stroke:none"
             id="path152" />
        </g>
      </g>
    </g>
    <g
       id="g154">
      <g
         id="g156">
        <g
           id="g162">
          <g
             id="g164">
            <path
               d="m 37.88,88.15 c -0.2,0 -0.41,-0.009 -0.6,-0.04 v 0 C 37.14,88.1 37,88.08 36.87,88.041 v 0 c -2.981,-0.62 -5.25,-3.931 -5.25,-7.91 v 0 -60.201 c 0,-4.43 2.81,-8.029 6.28,-8.029 v 0 h 75.43 c 3.47,0 6.29,3.599 6.29,8.029 v 0 60.201 c 0,4.429 -2.82,8.019 -6.29,8.019 v 0 z"
               style="fill:url(#linearGradient178);stroke:none"
               id="path180" />
          </g>
        </g>
      </g>
    </g>
    <g
       id="g182"
       style="display:inline">
      <g
         id="g184"
         clip-path="url(#clipPath188)">
        <g
           id="g190"
           transform="translate(119.3899,80.5502)">
          <path
             d="m 0,0 v -57.04 c 0,-3.94 -2.46,-7.18 -5.63,-7.57 -0.13,-0.02 -0.27,-0.03 -0.41,-0.03 -0.1,-0.01 -0.21,-0.01 -0.32,-0.01 H -81.5 c -0.8,0 -1.55,0.18 -2.25,0.52 -0.11,0.05 -0.23,0.1 -0.34,0.17 -2.17,1.18 -3.68,3.84 -3.68,6.92 V 0 c 0,3.78 2.27,6.91 5.25,7.49 0.13,0.04 0.27,0.06 0.41,0.07 0.19,0.03 0.4,0.04 0.6,0.04 H -6.27 C -2.8,7.6 0,4.2 0,0"
             style="fill:#c0bfbc;fill-opacity:1;fill-rule:nonzero;stroke:none"
             id="path192" />
        </g>
      </g>
    </g>
    <g
       id="g194"
       style="display:inline">
      <g
         id="g196">
        <g
           id="g202">
          <g
             id="g204">
            <path
               d="m 10.391,57.65 c 0,0.341 0.04,0.691 0.109,1.04 v 0 c -0.08,0.31 -0.109,0.64 -0.109,0.97 v 0 z"
               style="fill:url(#linearGradient214);stroke:none"
               id="path216" />
          </g>
        </g>
      </g>
    </g>
    <g
       id="g218"
       style="display:inline">
      <g
         id="g220">
        <g
           id="g226">
          <g
             id="g228">
            <path
               d="M 46.273,95.881 42.442,92.05 12.333,62.01 c -0.98,-0.98 -1.601,-2.16 -1.83,-3.32 v 0 c -0.07,-0.349 -0.111,-0.699 -0.111,-1.04 v 0 c 0,-1.07 0.35,-2.06 1.08,-2.79 v 0 L 49.323,17.09 c 1.739,-1.74 4.95,-1.35 7.17,0.861 v 0 l 17.66,17.619 16.28,16.25 c 1.16,1.16 1.82,2.58 1.93,3.931 v 0 c 0,0.059 0.009,0.109 0.009,0.17 v 0 0.46 1.7 C 92.363,57.8 92.323,57.51 92.263,57.22 v 0 c -0.161,0.66 -0.48,1.26 -0.971,1.751 v 0 L 53.443,96.74 c -0.734,0.73 -1.73,1.084 -2.802,1.084 v 0 c -1.47,0 -3.085,-0.666 -4.368,-1.943"
               style="fill:url(#linearGradient238);stroke:none"
               id="path240" />
          </g>
        </g>
      </g>
    </g>
    <g
       id="g242">
      <g
         id="g244"
         clip-path="url(#clipPath248)">
        <g
           id="g250"
           transform="translate(92.3726,58.0802)">
          <path
             d="m 0,0 c -0.01,-0.28 -0.05,-0.57 -0.11,-0.86 -0.25,-1.13 -0.86,-2.26 -1.82,-3.22 l -2.08,-2.08 -31.97,-31.97 c -2.21,-2.21 -5.41,-2.59 -7.15,-0.86 L -80.9,-1.22 c -0.5,0.5 -0.83,1.13 -0.97,1.83 -0.08,0.31 -0.11,0.64 -0.11,0.97 0,1.46 0.66,3.07 1.94,4.35 l 34.05,34.05 c 2.21,2.21 5.41,2.59 7.15,0.85 L -1.08,3.07 C -0.28,2.27 0.07,1.17 0,0"
             style="fill:#62a0ea;fill-opacity:1;fill-rule:nonzero;stroke:none"
             id="path252" />
        </g>
        <g
           id="g254"
           transform="translate(75.3787,63.6771)">
          <path
             d="m 0,0 -29.003,-28.614 c -0.771,-0.761 -2.001,-0.782 -2.746,-0.047 L -55.511,-5.24 c -0.746,0.735 -0.725,1.947 0.046,2.708 l 30.4,29.991 c 0.771,0.761 2,0.783 2.746,0.048 L 0.093,5.416 C 1.584,3.947 1.542,1.522 0,0"
             style="fill:#ffffff;fill-opacity:1;fill-rule:nonzero;stroke:none"
             id="path256" />
        </g>
      </g>
    </g>
    <g
       id="g258">
      <g
         id="g260">
        <g
           id="g266">
          <g
             id="g268">
            <path
               d="m 37.398,57.65 c 0,0.341 0.04,0.691 0.11,1.04 v 0 c -0.08,0.31 -0.11,0.64 -0.11,0.97 v 0 z"
               style="fill:url(#linearGradient278);stroke:none"
               id="path280" />
          </g>
        </g>
      </g>
    </g>
    <g
       id="g282">
      <g
         id="g284">
        <g
           id="g290">
          <g
             id="g292">
            <path
               d="M 73.28,95.881 69.45,92.05 39.34,62.01 c -0.98,-0.98 -1.6,-2.16 -1.83,-3.32 v 0 C 37.44,58.341 37.4,57.991 37.4,57.65 v 0 c 0,-1.07 0.35,-2.06 1.08,-2.79 v 0 L 76.33,17.09 c 1.74,-1.74 4.95,-1.35 7.17,0.861 v 0 l 17.66,17.619 16.28,16.25 c 1.16,1.16 1.82,2.58 1.93,3.931 v 0 c 0,0.059 0.01,0.109 0.01,0.17 v 0 0.46 1.7 C 119.37,57.8 119.33,57.51 119.27,57.22 v 0 c -0.16,0.66 -0.48,1.26 -0.97,1.751 v 0 L 80.45,96.74 c -0.734,0.73 -1.73,1.084 -2.802,1.084 v 0 c -1.47,0 -3.084,-0.666 -4.368,-1.943"
               style="fill:url(#linearGradient302);stroke:none"
               id="path304" />
          </g>
        </g>
      </g>
    </g>
    <g
       id="g306">
      <g
         id="g308"
         clip-path="url(#clipPath312)">
        <g
           id="g314"
           transform="translate(119.38,58.0802)">
          <path
             d="m 0,0 c -0.01,-0.28 -0.05,-0.57 -0.11,-0.86 -0.25,-1.13 -0.86,-2.26 -1.82,-3.22 l -2.08,-2.08 -31.97,-31.97 c -2.21,-2.21 -5.41,-2.59 -7.15,-0.86 L -80.9,-1.22 c -0.5,0.5 -0.83,1.13 -0.97,1.83 -0.08,0.31 -0.11,0.64 -0.11,0.97 0,1.46 0.66,3.07 1.94,4.35 l 34.05,34.05 c 2.21,2.21 5.41,2.59 7.15,0.85 L -1.08,3.07 C -0.28,2.27 0.07,1.17 0,0"
             style="fill:#8ff0a4;fill-opacity:1;fill-rule:nonzero;stroke:none"
             id="path316" />
        </g>
        <g
           id="g318"
           transform="translate(102.3861,63.6771)">
          <path
             d="m 0,0 -29.003,-28.614 c -0.771,-0.761 -2.001,-0.782 -2.746,-0.047 L -55.511,-5.24 c -0.746,0.735 -0.725,1.947 0.046,2.708 l 30.4,29.991 c 0.771,0.761 2,0.783 2.746,0.048 L 0.093,5.416 C 1.584,3.947 1.542,1.522 0,0"
             style="fill:#ffffff;fill-opacity:1;fill-rule:nonzero;stroke:none"
             id="path320" />
        </g>
      </g>
    </g>
    <g
       id="g322">
      <g
         id="g324"
         clip-path="url(#clipPath328)">
        <g
           id="g330">
          <g
             id="g332" />
          <g
             id="g358"
             mask="url(#mask346)">
            <g
               id="g360">
              <path
                 d="m 38.205,99.904 c -3.639,0 -6.587,-2.949 -6.587,-6.587 v 0 -70.825 c 0,-3.639 2.948,-6.588 6.587,-6.588 v 0 h 74.825 c 3.638,0 6.587,2.949 6.587,6.588 v 0 70.825 c 0,3.638 -2.949,6.587 -6.587,6.587 v 0 z"
                 style="fill:url(#linearGradient368);stroke:none"
                 id="path370" />
            </g>
          </g>
        </g>
      </g>
    </g>
    <g
       id="g372">
      <g
         id="g374"
         clip-path="url(#clipPath378)">
        <g
           id="g380"
           transform="translate(92.1263,68.0752)">
          <path
             d="m 0,0 v -1.827 c 0,-0.293 0.036,-0.567 0.091,-0.822 0.384,-1.627 1.846,-2.833 3.563,-2.833 1.718,0 3.161,1.188 3.545,2.778 0.073,0.274 0.11,0.566 0.11,0.877 V 0 Z"
             style="fill:#65a871;fill-opacity:1;fill-rule:nonzero;stroke:none"
             id="path382" />
        </g>
        <g
           id="g384"
           transform="translate(102.2788,58.081)">
          <path
             d="m 0,0 v -1.827 c 0,-0.293 0.036,-0.567 0.091,-0.822 0.384,-1.627 1.846,-2.833 3.563,-2.833 1.718,0 3.161,1.188 3.545,2.778 0.073,0.274 0.11,0.566 0.11,0.877 V 0 Z"
             style="fill:#3584e4;fill-opacity:1;fill-rule:nonzero;stroke:none"
             id="path386" />
        </g>
        <g
           id="g388"
           transform="translate(92.1263,47.9406)">
          <path
             d="m 0,0 v -1.827 c 0,-0.293 0.036,-0.567 0.091,-0.822 0.384,-1.627 1.846,-2.833 3.563,-2.833 1.718,0 3.161,1.188 3.545,2.778 0.073,0.274 0.11,0.566 0.11,0.877 V 0 Z"
             style="fill:#65a871;fill-opacity:1;fill-rule:nonzero;stroke:none"
             id="path390" />
        </g>
        <g
           id="g392"
           transform="translate(81.9371,58.081)">
          <path
             d="m 0,0 v -1.827 c 0,-0.293 0.036,-0.567 0.091,-0.822 0.384,-1.627 1.846,-2.833 3.563,-2.833 1.718,0 3.161,1.188 3.545,2.778 0.073,0.274 0.11,0.566 0.11,0.877 V 0 Z"
             style="fill:#65a871;fill-opacity:1;fill-rule:nonzero;stroke:none"
             id="path394" />
        </g>
        <g
           id="g396"
           transform="translate(99.435,68.0752)">
          <path
             d="m 0,0 c 0,-0.311 -0.037,-0.603 -0.11,-0.877 -0.383,-1.59 -1.827,-2.777 -3.544,-2.777 -1.718,0 -3.18,1.205 -3.563,2.832 -0.055,0.256 -0.092,0.53 -0.092,0.822 0,2.01 1.645,3.654 3.655,3.654 C -1.626,3.654 0,2.01 0,0"
             style="fill:#8ff0a4;fill-opacity:1;fill-rule:nonzero;stroke:none"
             id="path398" />
        </g>
        <g
           id="g400"
           transform="translate(109.5876,58.081)">
          <path
             d="m 0,0 c 0,-0.311 -0.037,-0.603 -0.11,-0.877 -0.383,-1.59 -1.827,-2.777 -3.544,-2.777 -1.718,0 -3.18,1.205 -3.563,2.832 -0.055,0.256 -0.092,0.53 -0.092,0.822 0,2.01 1.645,3.654 3.655,3.654 C -1.626,3.654 0,2.01 0,0"
             style="fill:#62a0ea;fill-opacity:1;fill-rule:nonzero;stroke:none"
             id="path402" />
        </g>
        <g
           id="g404"
           transform="translate(99.435,47.9406)">
          <path
             d="m 0,0 c 0,-0.311 -0.037,-0.603 -0.11,-0.877 -0.383,-1.59 -1.827,-2.777 -3.544,-2.777 -1.718,0 -3.18,1.205 -3.563,2.832 -0.055,0.256 -0.092,0.53 -0.092,0.822 0,2.01 1.645,3.654 3.655,3.654 C -1.626,3.654 0,2.01 0,0"
             style="fill:#8ff0a4;fill-opacity:1;fill-rule:nonzero;stroke:none"
             id="path406" />
        </g>
        <g
           id="g408"
           transform="translate(89.2458,58.081)">
          <path
             d="m 0,0 c 0,-0.311 -0.037,-0.603 -0.11,-0.877 -0.383,-1.59 -1.827,-2.777 -3.544,-2.777 -1.718,0 -3.18,1.205 -3.563,2.832 -0.055,0.256 -0.092,0.53 -0.092,0.822 0,2.01 1.645,3.654 3.655,3.654 C -1.626,3.654 0,2.01 0,0"
             style="fill:#8ff0a4;fill-opacity:1;fill-rule:nonzero;stroke:none"
             id="path410" />
        </g>
        <g
           id="g412"
           transform="translate(68.9232,57.944)">
          <path
             d="m 0,0 c 0,-1.673 -1.311,-3.023 -2.934,-3.023 h -7.512 v -7.759 c 0,-1.653 -1.31,-3.024 -2.934,-3.024 -1.623,0 -2.934,1.371 -2.934,3.024 v 7.759 h -7.531 c -1.604,0 -2.934,1.35 -2.934,3.023 0,1.673 1.33,3.023 2.934,3.023 h 7.531 v 7.739 c 0,1.673 1.311,3.024 2.934,3.024 1.624,0 2.934,-1.351 2.934,-3.024 V 3.023 h 7.512 C -1.311,3.023 0,1.673 0,0"
             style="fill:#62a0ea;fill-opacity:1;fill-rule:nonzero;stroke:none"
             id="path414" />
        </g>
        <g
           id="g416"
           transform="translate(52.6095,54.9209)">
          <path
             d="m 0,0 v -2.015 h -7.531 c -1.62,0 -2.934,1.353 -2.934,3.023 V 3.023 C -10.465,1.35 -9.135,0 -7.531,0 Z"
             style="fill:#3584e4;fill-opacity:1;fill-rule:nonzero;stroke:none"
             id="path418" />
        </g>
        <g
           id="g420"
           transform="translate(58.4777,47.1616)">
          <path
             d="m 0,0 v -2.015 c 0,-1.663 -1.32,-3.024 -2.934,-3.024 v 0 c -1.621,0 -2.934,1.354 -2.934,3.024 V 0 c 0,-1.653 1.31,-3.023 2.934,-3.023 C -1.311,-3.023 0,-1.653 0,0"
             style="fill:#3584e4;fill-opacity:1;fill-rule:nonzero;stroke:none"
             id="path422" />
        </g>
        <g
           id="g424"
           transform="translate(58.4777,54.9209)">
          <path
             d="m 0,0 v -2.015 h 7.531 c 1.62,0 2.934,1.353 2.934,3.023 V 3.023 C 10.465,1.35 9.135,0 7.531,0 Z"
             style="fill:#3584e4;fill-opacity:1;fill-rule:nonzero;stroke:none"
             id="path426" />
        </g>
      </g>
    </g>
  </g>
</svg>
